<svg width="25" height="20" viewBox="0 0 25 20" fill="none" xmlns="http://www.w3.org/2000/svg">
<path d="M0.715625 9.99141L7.5 8.74844L3.93438 11.4316C3.54063 11.8254 3.81953 12.4984 4.37617 12.4984H13.0754C12.7066 11.4672 12.5 10.3707 12.5 9.24141V7.59023L7.82305 4.16836C6.89258 3.54805 5.66328 3.62109 4.81289 4.34766L0.226953 8.89219C-0.256641 9.2957 0.0921875 10.0805 0.715625 9.99141ZM22.4684 11.3234L18.5363 9.3582C18.225 9.20253 17.9631 8.96322 17.78 8.66711C17.597 8.37099 17.5 8.02976 17.5 7.68164V6.24844H20L21.0973 7.13242C21.3316 7.3668 21.6496 7.49844 21.9812 7.49844H23.191C23.4231 7.49842 23.6507 7.43377 23.8481 7.31172C24.0456 7.18967 24.2052 7.01505 24.309 6.80742L24.868 5.68945C24.9718 5.48182 25.0157 5.2494 24.9949 5.01821C24.974 4.78702 24.8892 4.56619 24.75 4.38047L21.8387 0.498438C21.6023 0.183594 21.232 0 20.8387 0H11.5633C11.2848 0 11.1453 0.334766 11.3422 0.531641L13.75 2.49844L11.4227 3.46875C11.1922 3.58398 11.1922 3.9125 11.4227 4.02773L13.75 4.99844V9.24141C13.75 12.057 15.1574 14.6863 17.5 16.2484C9.85977 16.5145 4.04063 17.8504 0.542969 18.6277C0.225781 18.698 0 18.9797 0 19.3047C0 19.6875 0.310547 20 0.69375 20H20.1891C22.6613 20.0004 24.8613 18.1422 24.9934 15.6734C25.0918 13.8266 24.1055 12.1422 22.4684 11.3234ZM19.1086 2.58789L20.8918 3.03359C20.7844 3.45977 20.4047 3.77148 19.9492 3.74687C19.443 3.71914 18.9395 3.25742 19.1086 2.58789Z" fill="white"/>
</svg>
